<?xml version="1.0" standalone="no"?><!DOCTYPE svg PUBLIC "-//W3C//DTD SVG 1.1//EN" "http://www.w3.org/Graphics/SVG/1.1/DTD/svg11.dtd"><svg t="1544519259665" class="icon" style="" viewBox="0 0 1024 1024" version="1.1" xmlns="http://www.w3.org/2000/svg" p-id="4020" xmlns:xlink="http://www.w3.org/1999/xlink" width="32" height="32"><defs><style type="text/css"></style></defs><path d="M157.952 896c7.936 0 15.616-3.456 20.992-9.344 5.376-5.888 7.936-13.824 7.168-21.888-1.024-9.728-1.536-19.584-1.536-29.44 0-107.904 65.024-205.184 164.736-246.528s214.4-18.432 290.688 57.856c50.176 49.92 78.336 117.888 78.08 188.672 0 9.856-0.512 19.712-1.536 29.44-0.768 7.936 1.792 15.872 7.168 21.888 5.376 5.888 12.928 9.344 20.992 9.344 14.336 0 26.368-10.752 28.032-24.96 16.128-145.28-67.2-283.264-203.264-336.768 62.976-40.064 101.504-109.184 102.144-183.936 1.024-120.704-96.512-220.672-217.216-222.336-98.56-1.408-186.112 62.848-214.272 157.312-28.16 94.464 9.728 196.096 92.928 248.96C197.12 587.648 113.792 725.76 129.92 871.04c1.664 14.208 13.696 24.96 28.032 24.96z m129.664-547.712c0-66.176 39.936-125.952 100.992-151.296 61.184-25.344 131.584-11.392 178.432 35.456 46.848 46.848 60.8 117.248 35.456 178.432-25.344 61.184-84.992 100.992-151.296 100.992-90.24 0-163.456-73.216-163.584-163.584z m0 0" p-id="4021" fill="#1aad19"></path><path d="M741.888 511.104c40.448-25.728 67.712-67.584 74.88-115.072 7.04-47.36-6.784-95.488-37.888-131.84-5.888-6.784-14.72-10.368-23.68-9.6-8.96 0.768-17.024 5.76-21.632 13.568l-0.256 0.512c-6.144 10.496-4.992 23.68 2.944 32.896a108.8384 108.8384 0 0 1 24.064 89.216c-5.632 31.872-25.216 59.52-53.376 75.392-18.304 10.496-28.672 30.976-26.112 51.84 0 0.256 0 0.512 0.128 0.768 2.304 19.712 15.616 36.352 34.304 42.88 86.016 30.336 137.344 118.4 121.216 208.128-1.92 10.752 2.56 21.632 11.392 27.904l0.512 0.384c7.808 5.504 17.92 6.656 26.752 3.072 8.832-3.584 15.232-11.392 17.024-20.864 20.608-113.92-42.24-226.688-150.272-269.184z m0 0" p-id="4022" fill="#1aad19"></path></svg>