<?xml version="1.0" standalone="no"?><!DOCTYPE svg PUBLIC "-//W3C//DTD SVG 1.1//EN" "http://www.w3.org/Graphics/SVG/1.1/DTD/svg11.dtd"><svg t="1538583974670" class="icon" style="" viewBox="0 0 1024 1024" version="1.1" xmlns="http://www.w3.org/2000/svg" p-id="8009" xmlns:xlink="http://www.w3.org/1999/xlink" width="32" height="32"><defs><style type="text/css"></style></defs><path d="M512 130.26902 807.384615 425.653636 807.384615 925.538462 846.769231 925.538462 846.769231 465.038251 846.769231 465.038251 901.887801 520.156822 929.736928 492.307692 525.924565 88.495328 512 74.570763 94.263071 492.307692 122.112199 520.156822 177.230769 465.038251 177.230769 905.846154 177.230769 905.846154 177.230769 925.538462 807.384615 925.538462 807.384615 886.153846 649.846154 886.153846 649.846154 590.769231 649.846154 571.076923 393.846154 571.076923 393.846154 571.076923 374.153846 571.076923 374.153846 886.153846 374.153846 886.153846 216.615385 886.153846 216.615385 425.653636 512 130.26902ZM413.538462 886.153846 413.538462 610.461538 610.461538 610.461538 610.461538 886.153846 413.538462 886.153846 413.538462 886.153846Z" p-id="8010" fill="#8a8a8a"></path></svg>