<?xml version="1.0" standalone="no"?><!DOCTYPE svg PUBLIC "-//W3C//DTD SVG 1.1//EN" "http://www.w3.org/Graphics/SVG/1.1/DTD/svg11.dtd"><svg t="1538649312010" class="icon" style="" viewBox="0 0 1024 1024" version="1.1" xmlns="http://www.w3.org/2000/svg" p-id="2752" xmlns:xlink="http://www.w3.org/1999/xlink" width="32" height="32"><defs><style type="text/css"></style></defs><path d="M760.84 485.466c8.818 30.394 13.97 57.689 13.97 90.925 0 153.44-131.06 328.134-322.865 328.134-174.204 0-323.345-151.428-323.345-328.133 0-175.892 159.576-324.111 320.347-324.88 30.29-0.145 64.252 4.28 92.227 11.65l13.83-63.025c-32.829-8.971-67.383-13.764-103.057-13.764-215.412 0-390.025 176.663-390.025 392.062 0 215.404 174.613 387.975 390.025 387.975 215.398 0 390.02-174.618 390.02-390.022 0-39.25-5.808-77.149-16.595-112.888l-64.531 21.966z" p-id="2753" fill="#1aad19"></path><path d="M474.937 447.462c6.966 0 13.524 1.016 20.216 1.996l14.882-60.867a188.155 188.155 0 0 0-36.093-3.49c-103.392 0-194.648 83.973-200.291 187.21-6.229 113.942 84.046 194.433 201.286 194.433 103.394 0 186.22-91.039 186.22-194.436a188.11 188.11 0 0 0-3.964-38.469l-65.68 14.212c1.038 6.879 2.995 14.784 2.995 21.95 0 77.55-43.83 134.125-121.377 134.125-74.617 0-134.635-48.033-134.635-128.203 0-69.326 62.585-128.46 136.441-128.46z" p-id="2754" fill="#1aad19"></path><path d="M958.523 223.242l-177.135 7.779-18.92-175.432-43.319 48.543 0.016 0.204L603.838 237.47l1.952 1.978 7.586 136.42-158.99 183.36 47.485 40.614 158.992-183.364 138.362-9.852-0.012-0.183 0.182 0.17 115.466-133.176-0.192-0.157 0.179-0.013 43.675-50.025z m-186.058 133.54l-106.693 7.597-7.6-106.718 72.257-83.344 7.6 106.706 106.712-7.599-72.276 83.358z" p-id="2755" fill="#1aad19"></path></svg>