<?xml version="1.0" standalone="no"?><!DOCTYPE svg PUBLIC "-//W3C//DTD SVG 1.1//EN" "http://www.w3.org/Graphics/SVG/1.1/DTD/svg11.dtd"><svg t="1544518830563" class="icon" style="" viewBox="0 0 1024 1024" version="1.1" xmlns="http://www.w3.org/2000/svg" p-id="2984" xmlns:xlink="http://www.w3.org/1999/xlink" width="32" height="32"><defs><style type="text/css"></style></defs><path d="M690.176 589.824c-7.68-6.656-20.992-7.168-28.672-0.512C620.544 624.64 568.32 645.12 512 645.12c-55.808 0-108.544-20.48-149.504-56.32-7.68-6.656-19.456-6.656-27.648 0-58.88 51.2-141.312 70.656-223.744 43.52-3.584-1.024-8.704-2.56-8.704-3.584v256c0 59.392 45.568 96.256 104.96 96.256h609.792c59.392 0 109.056-36.864 109.056-96.256v-256c-87.04 33.792-175.104 14.848-236.032-38.912zM363.52 925.184c0 12.288-10.752 22.016-23.04 22.016s-23.04-9.728-23.04-22.016v-261.12c0-12.288 10.752-22.016 23.04-22.016s23.04 9.728 23.04 22.016v261.12z" p-id="2985" fill="#1aad19"></path><path d="M1017.856 373.76l-2.048-6.144L880.64 91.648c-14.848-29.696-45.056-49.152-78.336-49.152H219.136c-33.28 0-64 18.944-78.336 49.152L7.68 368.128c-0.512 1.536-1.536 4.096-2.048 5.632C1.536 389.12 0 401.92 0 416.768c0 83.456 53.76 156.672 134.144 178.688 79.872 21.504 154.624-9.216 197.632-65.536 8.192-10.752 25.088-10.752 33.792 0 33.792 44.032 87.04 72.192 146.432 72.192s112.64-28.16 146.432-72.192c8.704-10.752 25.088-11.264 33.792 0 40.448 52.736 108.544 83.456 182.272 69.632 83.456-15.872 153.088-104.448 149.504-189.44-1.024-12.288-3.072-24.064-6.144-36.352z" p-id="2986" fill="#1aad19"></path></svg>