<?xml version="1.0" standalone="no"?><!DOCTYPE svg PUBLIC "-//W3C//DTD SVG 1.1//EN" "http://www.w3.org/Graphics/SVG/1.1/DTD/svg11.dtd"><svg t="1538578940201" class="icon" style="" viewBox="0 0 1024 1024" version="1.1" xmlns="http://www.w3.org/2000/svg" p-id="4903" xmlns:xlink="http://www.w3.org/1999/xlink" width="48" height="48"><defs><style type="text/css"></style></defs><path d="M516.096 512m-476.16 0a476.16 476.16 0 1 0 952.32 0 476.16 476.16 0 1 0-952.32 0Z" fill="#EEEEEE" p-id="4904"></path><path d="M516.096 990.72c-264.192 0-478.72-214.528-478.72-478.72S251.904 33.28 516.096 33.28s478.72 214.528 478.72 478.72-215.04 478.72-478.72 478.72z m0-952.832C254.464 37.888 41.984 250.88 41.984 512s212.48 474.112 474.112 474.112 474.112-212.48 474.112-474.112-212.992-474.112-474.112-474.112z" fill="#898989" p-id="4905"></path><path d="M481.28 30.72c-24.064 5.12-48.128 9.728-72.192 15.36-205.824 52.736-355.328 220.672-384 431.104-0.512 5.12-3.072 9.728-4.608 14.336V30.72h460.8zM871.936 809.472c-44.032 49.664-98.304 90.112-159.744 117.76 52.736-23.04 101.376-55.808 142.336-98.304 7.168-6.656 12.8-13.312 17.408-19.456z" fill="#FFFFFF" p-id="4906"></path><path d="M867.328 824.832c23.552-31.232 16.896-50.688-21.504-86.016-3.072-3.072-6.144-6.144-9.728-8.192-60.416-33.792-120.832-67.584-182.784-101.888-32.256 58.88-61.44 112.64-91.648 167.936-17.408-27.136-11.776-48.64-1.536-71.168 3.584-8.192 4.608-22.016 0-28.672-10.24-15.872-24.576-29.184-42.496-49.664-13.312 16.384-20.992 29.696-32.256 39.424-14.848 12.8-17.92 24.576-5.632 40.448 16.384 22.016 13.312 43.52-3.072 66.56-28.672-55.296-57.344-110.08-87.552-167.936-36.352 17.92-70.656 34.304-103.936 51.2-17.92 9.216-35.328 19.456-52.736 29.184-32.256 17.408-45.568 49.664-69.12 77.312-26.112 30.72 40.448 82.432 56.832 95.744 138.24 113.152 330.752 132.608 487.424 64.512 61.44-28.672 115.712-69.12 159.744-118.784z" fill="#898989" p-id="4907"></path><path d="M657.92 540.16c62.464-81.408 75.776-172.544 51.2-270.336-15.872-64.512-59.904-101.888-124.416-113.152-27.136-4.608-55.296-6.144-82.432-4.608-90.624 4.608-146.432 54.784-161.28 143.36-3.072 17.408-3.584 35.328-5.12 52.736-4.096 73.728 19.968 138.24 64.512 194.56 77.312 97.792 181.76 95.744 257.536-2.56z" fill="#898989" p-id="4908"></path></svg>