<?xml version="1.0" standalone="no"?><!DOCTYPE svg PUBLIC "-//W3C//DTD SVG 1.1//EN" "http://www.w3.org/Graphics/SVG/1.1/DTD/svg11.dtd"><svg t="1538649647525" class="icon" style="" viewBox="0 0 1024 1024" version="1.1" xmlns="http://www.w3.org/2000/svg" p-id="3558" xmlns:xlink="http://www.w3.org/1999/xlink" width="32" height="32"><defs><style type="text/css"></style></defs><path d="M845.6 640.3c-10.7-2.8-21.6 3.5-24.5 14.2-33 124.6-159.6 211.7-308 211.7-174.1 0-315.8-122.2-315.8-272.5 0-105.2 71.5-202.1 182.1-246.8 9.9-4 14.9-15.2 11.3-25.2-3.6-10.1-14.5-15.6-24.7-12.4-5.4 1.7-11 2.5-16.7 2.5-31.2 0-56.5-25.4-56.5-56.5s25.4-56.5 56.5-56.5c32.4 0 45.4 4.7 51.6 18.5 3.9 8.7 13.4 13.4 22.6 11.3 9.3-2.1 15.8-10.4 15.6-19.9v-1.6c0-43.7 38.3-59.3 74.2-59.3s74.2 15.6 74.2 59.3v1.6c-0.2 9.5 6.3 17.8 15.6 19.9 9.3 2.1 18.7-2.6 22.6-11.3 6.2-13.9 19.2-18.5 51.6-18.5 31.2 0 56.5 25.4 56.5 56.5s-25.4 56.5-56.5 56.5c-5.7 0-11.3-0.8-16.7-2.5-10.2-3.2-21.2 2.3-24.7 12.4-3.6 10.1 1.4 21.2 11.3 25.2C736.5 383 802 454.1 822.4 537.1c2.6 10.7 13.5 17.3 24.2 14.7 10.7-2.6 17.3-13.5 14.7-24.2C849.6 480.1 825 435 790 397.1c-19.7-21.3-42.6-40.3-67.8-56.4 30.7-16.2 51.7-48.4 51.7-85.5 0-53.2-43.3-96.5-96.5-96.5-15.2 0-33 0.7-48.7 6.3-2.9 1-5.7 2.2-8.4 3.5-5.9-14.2-15.3-26.4-27.9-36.3-20.4-15.9-47.7-24.4-78.9-24.4-31.2 0-58.5 8.4-78.9 24.4-12.7 9.9-22.1 22.2-27.9 36.3-2.7-1.3-5.5-2.5-8.4-3.5-15.8-5.6-33.5-6.3-48.7-6.3-53.2 0-96.5 43.3-96.5 96.5 0 37 20.9 69.2 51.6 85.4-34.8 22.2-65 49.8-88.9 81.8-38.1 50.9-58.2 110.1-58.2 171.3 0 42.5 9.6 83.8 28.4 122.6 18.1 37.3 44 70.7 76.8 99.3 67.1 58.4 156.1 90.6 250.7 90.6 41 0 81.3-6.1 119.6-18.1 37.1-11.6 71.6-28.5 102.5-50.2 62.4-43.8 106.6-105.3 124.6-173.2 2.5-10.6-3.9-21.5-14.6-24.4z" fill="#8a8a8a" p-id="3559"></path><path d="M626.3 471.3c-6.9-8.6-19.5-10-28.1-3.1l-88.3 70.7-89.8-72c-8.6-6.9-21.2-5.5-28.1 3.1-6.9 8.6-5.5 21.2 3.1 28.1l84.5 67.7H407c-11 0-20 9-20 20s9 20 20 20h80.7v43.8h-83.5c-11 0-20 9-20 20s9 20 20 20h83.5v78.9c0 11 9 20 20 20s20-9 20-20v-78.9h79.2c11 0 20-9 20-20s-9-20-20-20h-79.2v-43.8h82c11 0 20-9 20-20s-9-20-20-20h-69.3l82.9-66.5c8.5-6.8 9.9-19.4 3-28zM897.1 575.5H738.4l33.4-42.4c6.8-8.7 5.3-21.3-3.3-28.1-8.7-6.8-21.3-5.3-28.1 3.3l-60.2 76.5c-5.8 7.4-5.7 17.8 0.2 25l60.5 74.1c4 4.8 9.7 7.4 15.5 7.4 4.4 0 8.9-1.5 12.6-4.5 8.6-7 9.8-19.6 2.9-28.1l-35.2-43.2h160.5c11 0 20-9 20-20s-9.1-20-20.1-20z" fill="#8a8a8a" p-id="3560"></path><path d="M625.4 471.6c-6.9-8.6-19.5-10-28.1-3.1L509 539.2l-89.8-72c-8.6-6.9-21.2-5.5-28.1 3.1-6.9 8.6-5.5 21.2 3.1 28.1l84.5 67.7H406c-11 0-20 9-20 20s9 20 20 20h80.7V650h-83.5c-11 0-20 9-20 20s9 20 20 20h83.5v78.9c0 11 9 20 20 20s20-9 20-20V690h79.2c11 0 20-9 20-20s-9-20-20-20h-79.2v-43.8h82c11 0 20-9 20-20s-9-20-20-20h-69.3l82.9-66.5c8.6-6.9 10-19.5 3.1-28.1z" fill="#8a8a8a" p-id="3561"></path></svg>