<?xml version="1.0" standalone="no"?><!DOCTYPE svg PUBLIC "-//W3C//DTD SVG 1.1//EN" "http://www.w3.org/Graphics/SVG/1.1/DTD/svg11.dtd"><svg t="1538648417447" class="icon" style="" viewBox="0 0 1194 1024" version="1.1" xmlns="http://www.w3.org/2000/svg" p-id="1948" xmlns:xlink="http://www.w3.org/1999/xlink" width="37.3125" height="32"><defs><style type="text/css"></style></defs><path d="M213.333333 554.666667V768h-85.333333V469.333333h938.666667V768h-85.333334V554.666667h-768z" p-id="1949" fill="#9a9a9a"></path><path d="M554.666667 341.333333h85.333333v170.666667h-85.333333zM426.666667 85.333333v170.666667h341.333333V85.333333z m-68.266667-85.333333h477.866667a17.066667 17.066667 0 0 1 17.066666 17.066667v307.2a17.066667 17.066667 0 0 1-17.066666 17.066666H358.4a17.066667 17.066667 0 0 1-17.066667-17.066666V17.066667a17.066667 17.066667 0 0 1 17.066667-17.066667zM85.333333 768v170.666667h341.333334V768zM17.066667 682.666667h477.866666a17.066667 17.066667 0 0 1 17.066667 17.066666v307.2a17.066667 17.066667 0 0 1-17.066667 17.066667H17.066667a17.066667 17.066667 0 0 1-17.066667-17.066667V699.733333A17.066667 17.066667 0 0 1 17.066667 682.666667zM768 768v170.666667h341.333333V768z m-68.266667-85.333333h477.866667a17.066667 17.066667 0 0 1 17.066667 17.066666v307.2a17.066667 17.066667 0 0 1-17.066667 17.066667H699.733333a17.066667 17.066667 0 0 1-17.066666-17.066667V699.733333a17.066667 17.066667 0 0 1 17.066666-17.066666z" p-id="1950" fill="#9a9a9a"></path></svg>