<?xml version="1.0" standalone="no"?><!DOCTYPE svg PUBLIC "-//W3C//DTD SVG 1.1//EN" "http://www.w3.org/Graphics/SVG/1.1/DTD/svg11.dtd"><svg t="1538880548789" class="icon" style="" viewBox="0 0 1024 1024" version="1.1" xmlns="http://www.w3.org/2000/svg" p-id="3159" xmlns:xlink="http://www.w3.org/1999/xlink" width="32" height="32"><defs><style type="text/css"></style></defs><path d="M821.341 492.789h-45.482V341.234c0-75.519-28.652-144.794-76.004-195.402C652.67 95.207 585.484 62.701 511.35 62.766c-74.131-0.065-141.354 32.44-188.505 83.066-47.384 50.608-76.035 119.883-76.035 195.402v151.554h-45.482c-18.865 0-34.16 15.295-34.16 34.16v400.57c0 18.864 15.295 34.16 34.16 34.16h620.014c18.865 0 34.16-15.296 34.16-34.16v-400.57c-0.001-18.864-15.296-34.159-34.161-34.159zM372.402 341.234c0-43.581 16.496-82.149 42.142-109.597 25.879-27.417 59.506-43.195 96.805-43.247 37.269 0.052 70.93 15.83 96.74 43.247 25.68 27.448 42.176 66.016 42.176 109.597v151.554H372.402V341.234z" p-id="3160" fill="#bfbfbf"></path></svg>